<?xml version="1.0" encoding="UTF-8" standalone="no"?>
<svg
   xmlns:dc="http://purl.org/dc/elements/1.1/"
   xmlns:cc="http://creativecommons.org/ns#"
   xmlns:rdf="http://www.w3.org/1999/02/22-rdf-syntax-ns#"
   xmlns:svg="http://www.w3.org/2000/svg"
   xmlns="http://www.w3.org/2000/svg"
   xmlns:sodipodi="http://sodipodi.sourceforge.net/DTD/sodipodi-0.dtd"
   xmlns:inkscape="http://www.inkscape.org/namespaces/inkscape"
   version="1.1"
   id="svg2"
   xml:space="preserve"
   width="460"
   height="192"
   viewBox="0 0 460 192"
   sodipodi:docname="AIR_JORDAN.eps"><metadata
     id="metadata8"><rdf:RDF><cc:Work
         rdf:about=""><dc:format>image/svg+xml</dc:format><dc:type
           rdf:resource="http://purl.org/dc/dcmitype/StillImage" /></cc:Work></rdf:RDF></metadata><defs
     id="defs6" /><sodipodi:namedview
     pagecolor="#ffffff"
     bordercolor="#666666"
     borderopacity="1"
     objecttolerance="10"
     gridtolerance="10"
     guidetolerance="10"
     inkscape:pageopacity="0"
     inkscape:pageshadow="2"
     inkscape:window-width="640"
     inkscape:window-height="480"
     id="namedview4" /><g
     id="g10"
     transform="matrix(1.3333333,0,0,-1.3333333,0,192)"><g
       id="g12"
       transform="scale(0.1)"><path
         d="M 7.67969,740.746 3.91406,756.324 H 724.258 c -0.574,-1.109 -1.106,-2.23 -1.61,-3.367 -5.718,-12.941 -6.96,-29.238 -0.203,-41.379 h -364.41 -28.722 l 5.507,-28.187 c 6.809,-34.868 31.36,-65.024 63.36,-88.825 H 296.605 271.871 c -99.598,0 -235.4999,27.414 -264.19131,146.18 z M 795.406,754.813 h 26.352 c 38.652,-7.918 78.367,-11.977 117.707,-11.977 18.531,0 39.68,0.629 58.105,3.492 16.2,2.098 32.41,4.902 48.51,8.485 h 244.97 c -5.06,-14.59 -9.39,-29.516 -12.94,-44.747 H 804.75 c 0.906,5.743 0.594,12.313 -0.867,19.438 -1.738,8.414 -4.235,17.777 -8.477,25.309 z M 2135.31,754.75 H 2381 c 21.6,-4.77 43.52,-7.945 65.57,-9.219 26.73,-1.543 66.04,-0.414 91.99,8.239 l 0.64,0.21 0.61,0.254 1.29,0.516 h 102.78 c -5.23,-10.023 -10.84,-26.504 -8.98,-37.137 0.08,-2.73 0.35,-5.265 0.8,-7.609 h -487.46 c -3.54,15.23 -7.87,30.156 -12.93,44.746 z m 584.07,-0.055 h 726.66 l -8.18,-21.086 c -28.7,-73.902 -191.23,-140.668 -267.3,-140.668 h -21.71 -104.77 c 26.28,22.196 46.85,50.852 57.96,86.282 l 9.64,30.73 h -32.21 -362.85 c 8.86,13.176 11.07,31.488 2.76,44.742"
         style="fill:black;fill-opacity:1;fill-rule:evenodd;stroke:none"
         id="path14" /><path
         d="M 7.67969,740.746 3.91406,756.324 H 724.258 c -0.574,-1.109 -1.106,-2.23 -1.61,-3.367 -5.718,-12.941 -6.96,-29.238 -0.203,-41.379 h -364.41 -28.722 l 5.507,-28.187 c 6.809,-34.868 31.36,-65.024 63.36,-88.825 H 296.605 271.871 c -99.598,0 -235.4999,27.414 -264.19131,146.18 z M 795.406,754.813 h 26.352 c 38.652,-7.918 78.367,-11.977 117.707,-11.977 18.531,0 39.68,0.629 58.105,3.492 16.2,2.098 32.41,4.902 48.51,8.485 h 244.97 c -5.06,-14.59 -9.39,-29.516 -12.94,-44.747 H 804.75 c 0.906,5.743 0.594,12.313 -0.867,19.438 -1.738,8.414 -4.235,17.777 -8.477,25.309 z M 2135.31,754.75 H 2381 c 21.6,-4.77 43.52,-7.945 65.57,-9.219 26.73,-1.543 66.04,-0.414 91.99,8.239 l 0.64,0.21 0.61,0.254 1.29,0.516 h 102.78 c -5.23,-10.023 -10.84,-26.504 -8.98,-37.137 0.08,-2.73 0.35,-5.265 0.8,-7.609 h -487.46 c -3.54,15.23 -7.87,30.156 -12.93,44.746 z m 584.07,-0.055 h 726.66 l -8.18,-21.086 c -28.7,-73.902 -191.23,-140.668 -267.3,-140.668 h -21.71 -104.77 c 26.28,22.196 46.85,50.852 57.96,86.282 l 9.64,30.73 h -32.21 -362.85 c 8.86,13.176 11.07,31.488 2.76,44.742 z"
         style="fill:none;stroke-width:2.16;stroke-linecap:butt;stroke-linejoin:miter;stroke-miterlimit:2.61313;stroke-dasharray:none;stroke-opacity:1"
         id="path16" /><path
         d="m 296.602,571.586 h 135.39 c 38.797,-21.035 82.352,-33.969 117.555,-36.691 l 0.91,-0.071 h 0.91 54.207 l 1.168,-6.844 c 4.735,-27.734 26.051,-53.675 54.617,-75.48 -63.504,0.016 -127.046,0.02 -190.656,0.02 -65.043,5.011 -152.828,62.019 -174.101,119.066 z M 2840.68,534.824 h 46.83 l 0.72,0.039 c 43.78,2.676 88.02,14.731 125.44,36.723 h 135.18 c -17.01,-47.051 -79.46,-109.375 -175.62,-120.281 l -180.9,0.023 c 21.54,20.969 38.35,46.981 45.95,74.723 z m 86.99,28.899 c -1.25,-0.246 -2.5,-0.496 -3.76,-0.735 1.26,0.239 2.51,0.489 3.76,0.735 z m -3.78,-0.735 c -1.41,-0.265 -2.85,-0.515 -4.29,-0.761 1.44,0.246 2.88,0.496 4.29,0.761 z m -16.14,-2.531 c -1.36,-0.176 -2.73,-0.34 -4.11,-0.5 1.38,0.156 2.75,0.324 4.11,0.5 z m -5.3,-0.629 c -1.34,-0.152 -2.69,-0.289 -4.05,-0.426 1.36,0.137 2.71,0.274 4.05,0.426 z m -4.95,-0.512 c -1.5,-0.14 -3.01,-0.273 -4.53,-0.394 1.52,0.121 3.03,0.254 4.53,0.394 z m -5.34,-0.461 c -1.78,-0.136 -3.56,-0.265 -5.37,-0.378 1.81,0.113 3.59,0.246 5.37,0.378 z M 551.367,558.477 c -1.222,0.093 -2.453,0.203 -3.687,0.324 1.234,-0.121 2.465,-0.231 3.687,-0.324 z m -3.929,0.347 c -1.165,0.117 -2.333,0.239 -3.5,0.371 1.167,-0.132 2.335,-0.257 3.5,-0.371"
         style="fill:black;fill-opacity:1;fill-rule:evenodd;stroke:none"
         id="path18" /><path
         d="m 296.602,571.586 h 135.39 c 38.797,-21.035 82.352,-33.969 117.555,-36.691 l 0.91,-0.071 h 0.91 54.207 l 1.168,-6.844 c 4.735,-27.734 26.051,-53.675 54.617,-75.48 -63.504,0.016 -127.046,0.02 -190.656,0.02 -65.043,5.011 -152.828,62.019 -174.101,119.066 z M 2840.68,534.824 h 46.83 l 0.72,0.039 c 43.78,2.676 88.02,14.731 125.44,36.723 h 135.18 c -17.01,-47.051 -79.46,-109.375 -175.62,-120.281 l -180.9,0.023 c 21.54,20.969 38.35,46.981 45.95,74.723 z m 86.99,28.899 c -1.25,-0.246 -2.5,-0.496 -3.76,-0.735 1.26,0.239 2.51,0.489 3.76,0.735 z m -3.78,-0.735 c -1.41,-0.265 -2.85,-0.515 -4.29,-0.761 1.44,0.246 2.88,0.496 4.29,0.761 z m -16.14,-2.531 c -1.36,-0.176 -2.73,-0.34 -4.11,-0.5 1.38,0.156 2.75,0.324 4.11,0.5 z m -5.3,-0.629 c -1.34,-0.152 -2.69,-0.289 -4.05,-0.426 1.36,0.137 2.71,0.274 4.05,0.426 z m -4.95,-0.512 c -1.5,-0.14 -3.01,-0.273 -4.53,-0.394 1.52,0.121 3.03,0.254 4.53,0.394 z m -5.34,-0.461 c -1.78,-0.136 -3.56,-0.265 -5.37,-0.378 1.81,0.113 3.59,0.246 5.37,0.378 z M 551.367,558.477 c -1.222,0.093 -2.453,0.203 -3.687,0.324 1.234,-0.121 2.465,-0.231 3.687,-0.324 z m -3.929,0.347 c -1.165,0.117 -2.333,0.239 -3.5,0.371 1.167,-0.132 2.335,-0.257 3.5,-0.371 z"
         style="fill:none;stroke-width:2.16;stroke-linecap:butt;stroke-linejoin:miter;stroke-miterlimit:2.61313;stroke-dasharray:none;stroke-opacity:1"
         id="path20" /><path
         d="m 539.398,425.887 h 163.915 c 38.183,-20.25 80.425,-33.606 112.515,-36.446 l 1.129,-0.101 h 1.141 22.363 l 1.039,-7.942 c 3.598,-27.421 21.137,-52.195 45.715,-73.125 l -167.402,0.02 c -69.481,5.551 -164.086,59.453 -180.415,117.594 z m 2066.032,-37.762 29.96,-0.004 h 0.84 l 0.82,0.055 c 44.34,2.863 86.95,14.644 123.07,37.711 h 145.93 c -14.11,-46.469 -80.18,-112.219 -184.34,-118.793 -56.04,0 -111.54,0.011 -166.59,0.027 22.75,19.84 42.76,45.141 48.56,72.695 l 1.75,8.309"
         style="fill:black;fill-opacity:1;fill-rule:evenodd;stroke:none"
         id="path22" /><path
         d="m 539.398,425.887 h 163.915 c 38.183,-20.25 80.425,-33.606 112.515,-36.446 l 1.129,-0.101 h 1.141 22.363 l 1.039,-7.942 c 3.598,-27.421 21.137,-52.195 45.715,-73.125 l -167.402,0.02 c -69.481,5.551 -164.086,59.453 -180.415,117.594 z m 2066.032,-37.762 29.96,-0.004 h 0.84 l 0.82,0.055 c 44.34,2.863 86.95,14.644 123.07,37.711 h 145.93 c -14.11,-46.469 -80.18,-112.219 -184.34,-118.793 -56.04,0 -111.54,0.011 -166.59,0.027 22.75,19.84 42.76,45.141 48.56,72.695 z"
         style="fill:none;stroke-width:2.16;stroke-linecap:butt;stroke-linejoin:miter;stroke-miterlimit:2.61313;stroke-dasharray:none;stroke-opacity:1"
         id="path24" /><path
         d="m 782.266,279.793 h 146.429 c 41.637,-23.332 90.185,-38.027 126.985,-40.805 l 0.95,-0.07 h 0.95 33.69 l 0.86,-7.504 c 2.44,-21.355 15.92,-40.504 35.32,-56.906 -56.83,0.031 -114.78,0.047 -174.184,0.047 -73.918,4.988 -141.559,54.929 -171,105.238 z m 1572.254,-42.098 31.1,-0.007 h 1.39 l 1.38,0.156 c 45.16,4.984 89.99,19.117 128.63,41.949 h 136.14 c -2.53,-46.27 -85.09,-100.828 -167.87,-106.734 -55.17,0 -109.08,0.019 -162.01,0.046 14.94,15.286 25.64,34.028 29.85,56.997 l 1.39,7.593"
         style="fill:black;fill-opacity:1;fill-rule:evenodd;stroke:none"
         id="path26" /><path
         d="m 782.266,279.793 h 146.429 c 41.637,-23.332 90.185,-38.027 126.985,-40.805 l 0.95,-0.07 h 0.95 33.69 l 0.86,-7.504 c 2.44,-21.355 15.92,-40.504 35.32,-56.906 -56.83,0.031 -114.78,0.047 -174.184,0.047 -73.918,4.988 -141.559,54.929 -171,105.238 z m 1572.254,-42.098 31.1,-0.007 h 1.39 l 1.38,0.156 c 45.16,4.984 89.99,19.117 128.63,41.949 h 136.14 c -2.53,-46.27 -85.09,-100.828 -167.87,-106.734 -55.17,0 -109.08,0.019 -162.01,0.046 14.94,15.286 25.64,34.028 29.85,56.997 z"
         style="fill:none;stroke-width:2.16;stroke-linecap:butt;stroke-linejoin:miter;stroke-miterlimit:2.61313;stroke-dasharray:none;stroke-opacity:1"
         id="path28" /><path
         d="m 1004.29,142.199 h 175.26 c 36.59,-17.125 77.39,-27.683 107.1,-30.019 l 1.01,-0.078 h 1.03 18.35 l 4.12,-11.704 c 7.53,-21.398 25.06,-41.8238 47.54,-59.5464 -46.16,-0.1133 -94.4,-0.1836 -145.43,-0.1836 -94.98,4.4843 -186.52,56.3086 -208.98,101.531 z m 1129.35,-31.09 16.86,-0.004 h 1.05 l 1.06,0.086 c 41.21,3.352 88.28,12.098 126.67,31.008 h 151.86 c -1.94,-41.59 -79.55,-91.7849 -142.68,-97.0974 -67,0 -129.21,-0.1055 -188.18,-0.293 16.83,17.0508 30.17,37.8672 32.66,60.0314 l 0.7,6.269"
         style="fill:black;fill-opacity:1;fill-rule:evenodd;stroke:none"
         id="path30" /><path
         d="m 1004.29,142.199 h 175.26 c 36.59,-17.125 77.39,-27.683 107.1,-30.019 l 1.01,-0.078 h 1.03 18.35 l 4.12,-11.704 c 7.53,-21.398 25.06,-41.8238 47.54,-59.5464 -46.16,-0.1133 -94.4,-0.1836 -145.43,-0.1836 -94.98,4.4843 -186.52,56.3086 -208.98,101.531 z m 1129.35,-31.09 16.86,-0.004 h 1.05 l 1.06,0.086 c 41.21,3.352 88.28,12.098 126.67,31.008 h 151.86 c -1.94,-41.59 -79.55,-91.7849 -142.68,-97.0974 -67,0 -129.21,-0.1055 -188.18,-0.293 16.83,17.0508 30.17,37.8672 32.66,60.0314 z"
         style="fill:none;stroke-width:2.16;stroke-linecap:butt;stroke-linejoin:miter;stroke-miterlimit:2.61313;stroke-dasharray:none;stroke-opacity:1"
         id="path32" /><path
         d="M 356.414,695.324 H 765.25 c 2.293,-0.219 4.488,-0.238 6.492,0 l 503.188,0.406 c -2.91,-4.972 -7.34,-30.246 -5.61,-36.5 H 706.152 678.809 l 3.933,-14.898 C 691,613.07 710.836,582.727 741.73,558.477 H 551.367 c -80.051,6.199 -182.277,71.941 -194.953,136.847 z m 1797.136,0.828 h 925.92 C 3063.2,644.277 3006.8,565.813 2886.79,558.477 h -197.23 c 31.47,23.101 57.69,52.429 66.1,83.882 l 5.16,19.289 H 2731 2156.71 c 0.52,5.911 2.04,28.653 -3.16,34.504"
         style="fill:black;fill-opacity:1;fill-rule:evenodd;stroke:none"
         id="path34" /><path
         d="M 356.414,695.324 H 765.25 c 2.293,-0.219 4.488,-0.238 6.492,0 l 503.188,0.406 c -2.91,-4.972 -7.34,-30.246 -5.61,-36.5 H 706.152 678.809 l 3.933,-14.898 C 691,613.07 710.836,582.727 741.73,558.477 H 551.367 c -80.051,6.199 -182.277,71.941 -194.953,136.847 z m 1797.136,0.828 h 925.92 C 3063.2,644.277 3006.8,565.813 2886.79,558.477 h -197.23 c 31.47,23.101 57.69,52.429 66.1,83.882 l 5.16,19.289 H 2731 2156.71 c 0.52,5.911 2.04,28.653 -3.16,34.504 z"
         style="fill:none;stroke-width:2.16;stroke-linecap:butt;stroke-linejoin:miter;stroke-miterlimit:2.61313;stroke-dasharray:none;stroke-opacity:1"
         id="path36" /><path
         d="m 630.113,531.328 h 153.02 c 35.164,-19.305 73.109,-31.988 102.441,-35.047 l 1.223,-0.125 h 1.226 56.434 l 0.977,-8.105 c 3.785,-31.27 32.781,-57.559 63.046,-77.059 -62.527,0.02 -125.898,0.028 -190.382,0.028 -64.153,5.679 -177.828,60.828 -187.985,120.308 z M 2501.63,496.156 h 30.12 l 0.97,0.078 c 27.3,2.239 54.51,9.469 79.92,19.536 10.29,4.07 21.68,9.312 33.46,15.558 h 169.24 c -13.03,-47.539 -66.42,-114.191 -179.95,-121.531 -66.49,0 -131.82,0.019 -196.24,0.043 31.27,23.07 55.49,50.297 60.65,76.871 l 1.83,9.445"
         style="fill:black;fill-opacity:1;fill-rule:evenodd;stroke:none"
         id="path38" /><path
         d="m 630.113,531.328 h 153.02 c 35.164,-19.305 73.109,-31.988 102.441,-35.047 l 1.223,-0.125 h 1.226 56.434 l 0.977,-8.105 c 3.785,-31.27 32.781,-57.559 63.046,-77.059 -62.527,0.02 -125.898,0.028 -190.382,0.028 -64.153,5.679 -177.828,60.828 -187.985,120.308 z M 2501.63,496.156 h 30.12 l 0.97,0.078 c 27.3,2.239 54.51,9.469 79.92,19.536 10.29,4.07 21.68,9.312 33.46,15.558 h 169.24 c -13.03,-47.539 -66.42,-114.191 -179.95,-121.531 -66.49,0 -131.82,0.019 -196.24,0.043 31.27,23.07 55.49,50.297 60.65,76.871 z"
         style="fill:none;stroke-width:2.16;stroke-linecap:butt;stroke-linejoin:miter;stroke-miterlimit:2.61313;stroke-dasharray:none;stroke-opacity:1"
         id="path40" /><path
         d="M 864.977,384.105 H 1058.2 c 30.02,-13.816 68.9,-28.312 98.05,-31.957 l 1.63,-0.203 h 1.64 19.78 l 4.06,-16.39 c 6.76,-27.254 30.78,-53.27 61.31,-74.524 -59.83,0.035 -121.92,0.051 -187.09,0.051 -76.994,5.809 -184.627,62.203 -192.603,123.023 z m 1395.293,-33.316 39.5,-0.008 h 1.31 l 1.29,0.129 c 27.03,2.672 62.51,15.137 95.99,33.195 h 182.11 c -10.23,-48.609 -87.39,-112.386 -194.85,-124.253 -64.62,0 -126.21,0.023 -185.57,0.062 29.63,21.137 54.37,48.246 58.39,77.52 l 1.83,13.355"
         style="fill:black;fill-opacity:1;fill-rule:evenodd;stroke:none"
         id="path42" /><path
         d="M 864.977,384.105 H 1058.2 c 30.02,-13.816 68.9,-28.312 98.05,-31.957 l 1.63,-0.203 h 1.64 19.78 l 4.06,-16.39 c 6.76,-27.254 30.78,-53.27 61.31,-74.524 -59.83,0.035 -121.92,0.051 -187.09,0.051 -76.994,5.809 -184.627,62.203 -192.603,123.023 z m 1395.293,-33.316 39.5,-0.008 h 1.31 l 1.29,0.129 c 27.03,2.672 62.51,15.137 95.99,33.195 h 182.11 c -10.23,-48.609 -87.39,-112.386 -194.85,-124.253 -64.62,0 -126.21,0.023 -185.57,0.062 29.63,21.137 54.37,48.246 58.39,77.52 z"
         style="fill:none;stroke-width:2.16;stroke-linecap:butt;stroke-linejoin:miter;stroke-miterlimit:2.61313;stroke-dasharray:none;stroke-opacity:1"
         id="path44" /><path
         d="m 1115.66,233.621 h 177.3 c 25.62,-11.746 51.93,-19.871 74.4,-22.875 l 1.8,-0.242 h 1.82 l 50.2,-0.012 6.44,-15.097 c 9.24,-21.688 30.04,-43.383 55.34,-61.938 -58.55,0.066 -122.16,0.098 -194.27,0.098 -67.85,5.332 -167.39,50.597 -173.03,100.066 z m 897.62,-24.16 53.29,-0.023 h 1.29 l 1.27,0.121 c 23.51,2.218 46.67,8.195 68.21,16.519 5.68,2.192 11.57,4.719 17.59,7.543 h 174.86 c -7.24,-39.535 -45.83,-90.191 -179.29,-101.055 -70.17,0 -132.28,0.047 -189.52,0.11 20.91,17.617 37.62,38.941 47.1,63.387 l 5.2,13.398"
         style="fill:black;fill-opacity:1;fill-rule:evenodd;stroke:none"
         id="path46" /><path
         d="m 1115.66,233.621 h 177.3 c 25.62,-11.746 51.93,-19.871 74.4,-22.875 l 1.8,-0.242 h 1.82 l 50.2,-0.012 6.44,-15.097 c 9.24,-21.688 30.04,-43.383 55.34,-61.938 -58.55,0.066 -122.16,0.098 -194.27,0.098 -67.85,5.332 -167.39,50.597 -173.03,100.066 z m 897.62,-24.16 53.29,-0.023 h 1.29 l 1.27,0.121 c 23.51,2.218 46.67,8.195 68.21,16.519 5.68,2.192 11.57,4.719 17.59,7.543 h 174.86 c -7.24,-39.535 -45.83,-90.191 -179.29,-101.055 -70.17,0 -132.28,0.047 -189.52,0.11 20.91,17.617 37.62,38.941 47.1,63.387 z"
         style="fill:none;stroke-width:2.16;stroke-linecap:butt;stroke-linejoin:miter;stroke-miterlimit:2.61313;stroke-dasharray:none;stroke-opacity:1"
         id="path48" /><path
         d="m 1333.67,117.559 h 192.29 c 25.39,-14.235 51.39,-24.1176 72.78,-27.0746 l 1.53,-0.2071 h 1.55 c 14.77,0 29.91,0.1446 45.11,0.0157 l 5.95,-17.0664 c 8.58,-24.5899 22.22,-51.2071 40.56,-70.37504 -45.28,0.21094 -98.04,0.37891 -189.13,0.37891 -54.43,4.0625 -151.7,55.12893 -170.64,114.32853 z m 455.61,-33.3051 c 9.32,0 18.59,0.043 27.74,0.043 h 0.68 l 0.69,0.0429 c 34.73,2.1172 71.99,13.7266 104.74,33.2192 h 186.28 c -4.6,-45.1606 -67.16,-107.72697 -162.6,-115.41837 -99.86,0 -153.66,0.21484 -202.04,0.45703 18.96,20.49214 37.77,47.26564 43.06,74.25784 l 1.45,7.3984"
         style="fill:black;fill-opacity:1;fill-rule:evenodd;stroke:none"
         id="path50" /><path
         d="m 1333.67,117.559 h 192.29 c 25.39,-14.235 51.39,-24.1176 72.78,-27.0746 l 1.53,-0.2071 h 1.55 c 14.77,0 29.91,0.1446 45.11,0.0157 l 5.95,-17.0664 c 8.58,-24.5899 22.22,-51.2071 40.56,-70.37504 -45.28,0.21094 -98.04,0.37891 -189.13,0.37891 -54.43,4.0625 -151.7,55.12893 -170.64,114.32853 z m 455.61,-33.3051 c 9.32,0 18.59,0.043 27.74,0.043 h 0.68 l 0.69,0.0429 c 34.73,2.1172 71.99,13.7266 104.74,33.2192 h 186.28 c -4.6,-45.1606 -67.16,-107.72697 -162.6,-115.41837 -99.86,0 -153.66,0.21484 -202.04,0.45703 18.96,20.49214 37.77,47.26564 43.06,74.25784 z"
         style="fill:none;stroke-width:2.16;stroke-linecap:butt;stroke-linejoin:miter;stroke-miterlimit:2.61313;stroke-dasharray:none;stroke-opacity:1"
         id="path52" /><path
         d="m 705.984,645.785 h 562.096 c -1.12,-12.922 -1.56,-15.453 -1.56,-37.25 0,-21.797 3.05,-60.043 8.83,-88.726 H 888.023 c -59.609,6.199 -172.601,61.07 -182.039,125.976 z m 1452.446,0 h 574.03 C 2720.35,593.91 2620.15,527.148 2530.79,519.809 H 2151.5 c 5.78,28.683 8.83,66.929 8.83,88.726 0,21.797 -0.78,24.328 -1.9,37.25"
         style="fill:black;fill-opacity:1;fill-rule:evenodd;stroke:none"
         id="path54" /><path
         d="m 705.984,645.785 h 562.096 c -1.12,-12.922 -1.56,-15.453 -1.56,-37.25 0,-21.797 3.05,-60.043 8.83,-88.726 H 888.023 c -59.609,6.199 -172.601,61.07 -182.039,125.976 z m 1452.446,0 h 574.03 C 2720.35,593.91 2620.15,527.148 2530.79,519.809 H 2151.5 c 5.78,28.683 8.83,66.929 8.83,88.726 0,21.797 -0.78,24.328 -1.9,37.25 z"
         style="fill:none;stroke-width:2.16;stroke-linecap:butt;stroke-linejoin:miter;stroke-miterlimit:2.61313;stroke-dasharray:none;stroke-opacity:1"
         id="path56" /><path
         d="m 968.953,490.32 h 313.407 c 11.46,-41.879 28.87,-81.297 51.25,-117.308 -55.1,0.039 -112.78,0.058 -174.09,0.058 -44.25,5.532 -183.555,59.289 -190.567,117.25 z m 1175.527,0 h 332.01 c -8.99,-46.324 -110.37,-111.859 -176.72,-118.414 -73.68,0 -142.16,0.043 -207.17,0.098 22.69,36.285 40.31,76.047 51.88,118.316"
         style="fill:black;fill-opacity:1;fill-rule:evenodd;stroke:none"
         id="path58" /><path
         d="m 968.953,490.32 h 313.407 c 11.46,-41.879 28.87,-81.297 51.25,-117.308 -55.1,0.039 -112.78,0.058 -174.09,0.058 -44.25,5.532 -183.555,59.289 -190.567,117.25 z m 1175.527,0 h 332.01 c -8.99,-46.324 -110.37,-111.859 -176.72,-118.414 -73.68,0 -142.16,0.043 -207.17,0.098 22.69,36.285 40.31,76.047 51.88,118.316 z"
         style="fill:none;stroke-width:2.16;stroke-linecap:butt;stroke-linejoin:miter;stroke-miterlimit:2.61313;stroke-dasharray:none;stroke-opacity:1"
         id="path60" /><path
         d="m 1206.49,349.113 h 143.03 c 33.01,-46.222 74.61,-85.883 122.46,-116.675 -31.07,0.031 -64.46,0.042 -101,0.042 -53,7.594 -151.01,58.395 -164.49,116.633 z m 870.84,0 h 157.62 c -6.16,-48.031 -88.9,-109.734 -168.38,-117.773 -41.41,0 -78.82,0.023 -113.34,0.062 48.53,30.934 90.71,70.965 124.1,117.711"
         style="fill:black;fill-opacity:1;fill-rule:evenodd;stroke:none"
         id="path62" /><path
         d="m 1206.49,349.113 h 143.03 c 33.01,-46.222 74.61,-85.883 122.46,-116.675 -31.07,0.031 -64.46,0.042 -101,0.042 -53,7.594 -151.01,58.395 -164.49,116.633 z m 870.84,0 h 157.62 c -6.16,-48.031 -88.9,-109.734 -168.38,-117.773 -41.41,0 -78.82,0.023 -113.34,0.062 48.53,30.934 90.71,70.965 124.1,117.711 z"
         style="fill:none;stroke-width:2.16;stroke-linecap:butt;stroke-linejoin:miter;stroke-miterlimit:2.61313;stroke-dasharray:none;stroke-opacity:1"
         id="path64" /><path
         d="m 1721.54,22.2734 c -18.02,14.0977 -30.67,40.5352 -37.3,60.1524 22.12,7.4844 53.03,4.4609 74.59,0 -4.1,-21.586 -22.36,-45 -37.29,-60.1524 z M 1449.53,203.879 h 74.08 c 57.62,-27.082 121.95,-42.246 189.82,-42.246 67.87,0 132.18,15.164 189.8,42.246 h 82.66 c -25.43,-65.602 -109.18,-101.203 -168.87,-104.5079 -29.28,0 -49.66,0.1875 -64.46,0.4922 -14.76,1.9497 -30.62,3.0427 -46.03,2.4997 -13.53,1.262 -30.85,2.442 -104.71,2.442 -39.31,4.933 -130.53,48.027 -152.29,99.074"
         style="fill:black;fill-opacity:1;fill-rule:evenodd;stroke:none"
         id="path66" /><path
         d="m 1721.54,22.2734 c -18.02,14.0977 -30.67,40.5352 -37.3,60.1524 22.12,7.4844 53.03,4.4609 74.59,0 -4.1,-21.586 -22.36,-45 -37.29,-60.1524 z M 1449.53,203.879 h 74.08 c 57.62,-27.082 121.95,-42.246 189.82,-42.246 67.87,0 132.18,15.164 189.8,42.246 h 82.66 c -25.43,-65.602 -109.18,-101.203 -168.87,-104.5079 -29.28,0 -49.66,0.1875 -64.46,0.4922 -14.76,1.9497 -30.62,3.0427 -46.03,2.4997 -13.53,1.262 -30.85,2.442 -104.71,2.442 -39.31,4.933 -130.53,48.027 -152.29,99.074 z"
         style="fill:none;stroke-width:2.16;stroke-linecap:butt;stroke-linejoin:miter;stroke-miterlimit:2.61313;stroke-dasharray:none;stroke-opacity:1"
         id="path68" /><path
         d="m 2107.89,467.203 c -19.59,-55.969 -50.75,-106.488 -90.65,-148.687 -145.92,65.816 -252.07,160.746 -328.72,257.652 42.42,29.656 160.08,67.578 419.37,-108.965 z M 1714.07,187.895 c -148.07,0 -278.07,77.113 -352.1,193.386 75.46,112.121 163.43,193.649 251.52,253.008 11.69,-17.797 23.58,-34.75 35.57,-50.945 -46.36,-39.141 -133.54,-156.512 71.57,-395.399 -2.18,-0.031 -4.37,-0.05 -6.56,-0.05 z m -45.33,369.644 c 154.76,-196.598 319.41,-266.254 319.97,-266.488 -62.2,-54.453 -154.59,-86.305 -222.28,-99.906 0,0 -240.36,239.679 -97.72,366.359 z M 1340.9,418.469 c -28.12,56.144 -43.97,119.496 -43.97,186.562 0,55.625 10.91,108.684 30.66,157.199 101.54,-111.488 247.36,-64.992 247.36,-64.992 l 0.01,0.008 c 7.19,-12.656 14.51,-24.941 21.92,-36.902 C 1423.77,547.859 1341.46,419.336 1340.9,418.469 Z m 3.36,379.711 c 30.03,57.386 73.05,106.922 125.14,144.703 25.2,-81.328 56.05,-153.434 89.99,-217.231 l -0.05,-0.015 c -132.67,-47.352 -214.31,71.422 -215.08,72.543 z m 157.12,165.734 c 55.65,33.063 119.66,53.546 188.1,57.536 7.31,-185.434 -65.05,-257.669 -104.9,-283.231 -64.34,125.324 -83.02,224.73 -83.2,225.695 z m 233.93,57.726 c 142.18,-7.13 265.55,-85.433 335.3,-199.992 -187.62,-16.453 -337.09,-77.183 -450.64,-146.695 -7.3,12.024 -14.2,23.945 -20.68,35.688 126.17,82.625 136.01,310.589 136.02,310.999 z m 351.25,-228.702 c 28.55,-56.465 44.65,-120.293 44.65,-187.907 0,-34.472 -4.19,-67.988 -12.08,-100.031 -0.75,0.469 -329.47,202.867 -447.98,93.828 -12.5,16.824 -24.15,33.633 -34.97,50.301 227.52,143.746 448.78,143.809 450.38,143.809"
         style="fill:black;fill-opacity:1;fill-rule:evenodd;stroke:none"
         id="path70" /><path
         d="m 2107.89,467.203 c -19.59,-55.969 -50.75,-106.488 -90.65,-148.687 -145.92,65.816 -252.07,160.746 -328.72,257.652 42.42,29.656 160.08,67.578 419.37,-108.965 z M 1714.07,187.895 c -148.07,0 -278.07,77.113 -352.1,193.386 75.46,112.121 163.43,193.649 251.52,253.008 11.69,-17.797 23.58,-34.75 35.57,-50.945 -46.36,-39.141 -133.54,-156.512 71.57,-395.399 -2.18,-0.031 -4.37,-0.05 -6.56,-0.05 z m -45.33,369.644 c 154.76,-196.598 319.41,-266.254 319.97,-266.488 -62.2,-54.453 -154.59,-86.305 -222.28,-99.906 0,0 -240.36,239.679 -97.72,366.359 z M 1340.9,418.469 c -28.12,56.144 -43.97,119.496 -43.97,186.562 0,55.625 10.91,108.684 30.66,157.199 101.54,-111.488 247.36,-64.992 247.36,-64.992 l 0.01,0.008 c 7.19,-12.656 14.51,-24.941 21.92,-36.902 C 1423.77,547.859 1341.46,419.336 1340.9,418.469 Z m 3.36,379.711 c 30.03,57.386 73.05,106.922 125.14,144.703 25.2,-81.328 56.05,-153.434 89.99,-217.231 l -0.05,-0.015 c -132.67,-47.352 -214.31,71.422 -215.08,72.543 z m 157.12,165.734 c 55.65,33.063 119.66,53.546 188.1,57.536 7.31,-185.434 -65.05,-257.669 -104.9,-283.231 -64.34,125.324 -83.02,224.73 -83.2,225.695 z m 233.93,57.726 c 142.18,-7.13 265.55,-85.433 335.3,-199.992 -187.62,-16.453 -337.09,-77.183 -450.64,-146.695 -7.3,12.024 -14.2,23.945 -20.68,35.688 126.17,82.625 136.01,310.589 136.02,310.999 z m 351.25,-228.702 c 28.55,-56.465 44.65,-120.293 44.65,-187.907 0,-34.472 -4.19,-67.988 -12.08,-100.031 -0.75,0.469 -329.47,202.867 -447.98,93.828 -12.5,16.824 -24.15,33.633 -34.97,50.301 227.52,143.746 448.78,143.809 450.38,143.809 z"
         style="fill:none;stroke-width:2.16;stroke-linecap:butt;stroke-linejoin:miter;stroke-miterlimit:2.61313;stroke-dasharray:none;stroke-opacity:1"
         id="path72" /><path
         d="m 739.926,708.551 c 0,0 -18.422,11.031 -6.469,38.078 2.988,6.758 6.516,11.078 10.191,13.707 9.582,6.863 32.079,5.234 41.454,-11.352 2.437,-4.308 4.961,-11.062 7.187,-21.855 6.777,-32.91 -17.875,-28.469 -19.531,-28.84 -2.949,-0.672 -18.039,0.66 -32.832,10.262 z M 2656.5,752.25 c 0,0 10.52,18.723 37.89,7.523 6.83,-2.796 11.25,-6.207 13.98,-9.808 7.13,-9.383 6.12,-31.918 -10.2,-41.75 -4.23,-2.559 -10.92,-5.266 -21.65,-7.789 -32.71,-7.688 -28.95,17.078 -29.37,18.722 -0.75,2.926 0.16,18.051 9.35,33.102"
         style="fill:black;fill-opacity:1;fill-rule:evenodd;stroke:none"
         id="path74" /><path
         d="m 739.926,708.551 c 0,0 -18.422,11.031 -6.469,38.078 2.988,6.758 6.516,11.078 10.191,13.707 9.582,6.863 32.079,5.234 41.454,-11.352 2.437,-4.308 4.961,-11.062 7.187,-21.855 6.777,-32.91 -17.875,-28.469 -19.531,-28.84 -2.949,-0.672 -18.039,0.66 -32.832,10.262 z M 2656.5,752.25 c 0,0 10.52,18.723 37.89,7.523 6.83,-2.796 11.25,-6.207 13.98,-9.808 7.13,-9.383 6.12,-31.918 -10.2,-41.75 -4.23,-2.559 -10.92,-5.266 -21.65,-7.789 -32.71,-7.688 -28.95,17.078 -29.37,18.722 -0.75,2.926 0.16,18.051 9.35,33.102 z"
         style="fill:none;stroke-width:2.16;stroke-linecap:butt;stroke-linejoin:miter;stroke-miterlimit:2.61313;stroke-dasharray:none;stroke-opacity:1"
         id="path76" /><path
         d="m 719.496,769.43 c -19.098,89.488 -38.199,178.984 -57.301,268.48 0,0 -24.558,62.21 93.313,44.2 0,0 152.25,-29.47 207.906,-22.92 0,0 58.936,9.83 121.146,70.4 0,0 234.1,181.71 337.24,230.82 0,0 124.41,72.04 271.75,68.76 0,0 229.19,18.01 497.67,-198.09 0,0 106.41,-91.98 182.69,-136.73 66.57,-39.06 118.64,-31.45 199.42,-13.58 48.92,10.82 120.69,27.85 164.67,-0.3 -18,-95.493 -36.01,-190.99 -54.02,-286.486 0,0 -58.93,8.188 -152.25,-29.464 0,0 -122.78,-40.926 -302.86,65.484 -200.91,153.359 -421.06,359.906 -694.12,239.016 0,0 -127.69,-50.75 -324.14,-219.372 0,0 -63.84,-72.031 -216.09,-91.675 0,0 -83.489,-13.102 -189.899,13.093 -35.191,6.059 -50.781,7.321 -85.125,-1.636 z M 1235.9,897.48 c -4.21,2.938 -6.13,10.415 -7.31,15.125 -0.17,0.743 -0.34,1.489 -0.51,2.235 -41.13,53.191 -82.28,106.39 -123.41,159.58 -9.97,12.9 -29.88,9.78 -8.16,26.54 31.38,24.22 64.3,60.4 104.15,68.38 16.56,3.32 32.6,1.8 48.48,-9.86 9.86,-7.23 17.57,-16.96 21.2,-28.91 5.21,-17.17 3.4,-33.78 -2.06,-51.48 -0.91,-2.64 -1.83,-5.28 -2.74,-7.92 -2.47,-6.09 -4.94,-12.18 -7.41,-18.28 10.18,-3.89 20.37,-7.78 30.55,-11.67 10.39,-3.21 20.78,-6.43 31.17,-9.64 7.17,-1.59 14.35,-3.19 21.52,-4.77 8.02,-1.42 16.04,-2.85 24.06,-4.27 9.27,-1.45 18.54,-2.91 27.82,-4.36 -0.38,-0.68 -0.75,-1.36 -1.12,-2.03 -0.34,-0.65 -0.68,-1.29 -1.02,-1.93 -0.78,-1.25 -1.56,-2.51 -2.33,-3.76 -0.85,-1.15 -1.69,-2.3 -2.54,-3.45 -0.92,-1.12 -1.83,-2.23 -2.74,-3.35 -0.98,-1.08 -1.96,-2.16 -2.95,-3.25 -0.54,-0.504 -1.08,-1.012 -1.62,-1.519 -0.57,-0.508 -1.15,-1.016 -1.73,-1.524 -0.57,-0.508 -1.15,-1.015 -1.72,-1.519 -0.58,-0.442 -1.16,-0.879 -1.73,-1.321 -0.61,-0.406 -1.21,-0.812 -1.82,-1.218 -0.65,-0.407 -1.29,-0.813 -1.93,-1.219 -1.15,-0.645 -2.3,-1.285 -3.46,-1.926 -0.57,-0.309 -1.15,-0.609 -1.72,-0.918 -0.61,-0.269 -1.22,-0.539 -1.83,-0.808 -0.61,-0.239 -1.22,-0.473 -1.83,-0.711 -0.3,-0.106 -0.61,-0.207 -0.91,-0.305 -0.34,-0.102 -0.68,-0.203 -1.01,-0.305 -0.31,-0.105 -0.61,-0.203 -0.92,-0.304 -0.3,-0.071 -0.61,-0.137 -0.91,-0.204 -0.3,-0.07 -0.61,-0.136 -0.91,-0.203 -0.31,-0.035 -0.61,-0.066 -0.92,-0.101 -0.34,-0.035 -0.67,-0.067 -1.01,-0.102 -0.37,0 -0.75,0 -1.12,0 -0.81,0.035 -1.63,0.067 -2.44,0.102 -0.84,0.101 -1.69,0.203 -2.53,0.304 -0.85,0.133 -1.69,0.27 -2.54,0.403 -1.96,0.41 -3.93,0.816 -5.89,1.218 -42.1,12.56 -84.2,25.11 -126.3,37.67 -5.55,1.66 -10.39,2.2 -7.09,8.52 13.08,26.88 41.78,48.4 28.34,77.71 -13.61,29.66 -36.99,26.97 -60.03,15.69 -10.82,-5.29 -26.47,-13.09 -29.52,-26.3 -0.2,-0.95 -0.41,-1.89 -0.61,-2.84 -0.2,-1.12 -0.41,-2.23 -0.61,-3.35 41.79,-52.76 83.58,-105.506 125.37,-158.26 26.69,-13.23 -14.98,-30.488 -27.92,-39.59 -2.22,-1.769 -5.78,0 -5.78,0 z m -138.97,-81.007 51.16,21.218 -0.3,1.418 -0.41,1.219 -0.61,1.117 -0.61,1.016 -0.71,0.707 -0.91,0.609 -0.92,0.508 -1.12,0.309 -2.23,0.707 -0.91,0.508 -0.91,0.511 -0.61,0.504 -0.61,0.61 -1.32,1.218 -1.32,1.524 c -29.61,62.429 -59.22,124.859 -88.83,187.294 -0.13,0.71 -0.27,1.42 -0.4,2.13 -0.34,1.83 -0.68,3.65 -1.02,5.48 -0.13,1.12 -0.27,2.23 -0.4,3.35 -0.1,1.12 -0.21,2.23 -0.31,3.35 0,0.54 0,1.08 0,1.62 0,0.51 0,1.02 0,1.53 0,5.98 5.31,9.9 -3.04,8.93 -1.7,-0.31 -3.39,-0.61 -5.08,-0.91 -1.69,-0.34 -3.38,-0.68 -5.08,-1.02 -1.65,-0.44 -3.31,-0.88 -4.97,-1.32 -0.84,-0.31 -1.69,-0.61 -2.54,-0.91 -0.91,-0.38 -1.82,-0.75 -2.74,-1.12 -1.96,-0.88 -3.92,-1.76 -5.89,-2.63 -3.99,-2.14 -7.98,-4.27 -11.97,-6.4 l -10.129,-6.22 c -5.328,-3.26 -4.289,-6.37 0.868,-8.97 l 7.331,-3.7 81.11,-179.469 4.24,-9.558 5.4,-14.5 -0.81,-0.813 -0.61,-0.609 -0.51,-0.609 -0.71,-1.016 -0.41,-1.117 -0.3,-1.219 -0.1,-1.316 0.1,-1.321 0.3,-1.523 0.21,-0.711 0.2,-0.711 0.41,-0.813 0.49,-1.097 z M 947.293,783.625 c 4.84,-0.016 9.68,-0.027 14.52,-0.043 16.41,0 32.82,0 49.237,0 -1.29,2.27 -2.58,4.535 -3.86,6.801 -24.432,80.398 -48.866,160.797 -73.295,241.197 -1.286,0.54 -2.571,1.08 -3.856,1.62 -1.289,0.44 -2.574,0.88 -3.859,1.32 -1.254,0.41 -2.504,0.82 -3.758,1.22 -1.281,0.34 -2.57,0.68 -3.856,1.01 -1.285,0.31 -2.57,0.62 -3.855,0.92 -1.289,0.24 -2.574,0.47 -3.859,0.71 -1.321,0.21 -2.637,0.41 -3.957,0.61 -3.157,0.32 -24.415,2.94 -19.29,-6.29 0.883,-1.97 1.372,-3.51 1.829,-5.59 0.132,-0.71 0.269,-1.42 0.406,-2.13 0.066,-0.68 0.137,-1.35 0.199,-2.03 0.137,-1.59 0.274,-3.18 0.41,-4.77 -31.82,-67.723 -64.961,-133.985 -98.469,-200.793 -2.324,-5.942 -6.332,-11.086 -7.714,-18.274 16.41,-0.644 32.824,-1.285 49.23,-1.925 0.07,0.402 0.137,0.808 0.207,1.214 0,0.407 0,0.813 0,1.219 0,0.406 0,0.813 0,1.219 -0.07,0.371 -0.137,0.746 -0.207,1.117 -5.277,19.367 -8.535,19.305 1.934,39.59 0.98,1.961 1.961,3.926 2.941,5.887 1.254,2.168 2.504,4.332 3.754,6.496 2.777,4.433 5.551,8.867 8.328,13.3 1.676,2.469 3.348,4.942 5.024,7.411 2.445,3.609 5.586,5.902 9.171,7.304 10.864,4.254 58.735,3.008 69.016,-2.215 4.703,-2.39 8.383,-6.75 10.516,-14.574 5.804,-21.32 10.121,-60.136 10.121,-64.722 -0.039,-1.161 -0.078,-2.325 -0.113,-3.485 -0.083,-2.441 0.371,-2.316 -1.715,-3.156 -3.969,-1.613 -4.598,-6.301 -5.18,-10.168 z m -34.035,120.656 c -8.762,0 -17.524,0 -26.281,0 -3.305,0 -4.356,0.16 -5.7,3.625 -5.855,15.121 17.684,52.688 26.528,59.114 4.851,-7.161 18.211,-37.387 15.941,-53.926 -1.086,-7.91 -3.629,-8.813 -10.488,-8.813 z M 2422.91,808.578 c 0.6,1.652 1.21,3.301 1.81,4.949 -1.9,71.051 -3.79,142.098 -5.68,213.153 -0.15,5.52 -6.25,11.83 -7.83,18.4 17.7,0.68 35.4,1.35 53.1,2.03 2.57,-1.93 5.14,-3.86 7.71,-5.79 39.25,-48.894 78.51,-97.789 117.76,-146.683 3.15,0 5.23,0.433 6.44,1.574 5.5,5.191 2.4,40.168 1.8,49.434 -2.06,31.511 -4.11,63.025 -6.16,94.535 -0.45,0.41 -0.85,0.83 -1.22,1.25 -1.48,1.68 -11.96,13.36 -5.91,13.75 14.4,0.96 25.93,0.94 40.35,1.45 5.11,0.18 3.07,-3.97 1.66,-7.47 -0.63,-1.55 -1.48,-3.08 -2.65,-4.79 -1.94,-2.71 -1.47,-4.21 -1.39,-7.56 1.76,-70.4 3.52,-140.802 5.28,-211.201 0.36,-14.472 3.24,-14.921 -11.44,-14.921 -9.56,0 -9.96,-0.543 -16.08,6.73 -40.89,48.617 -81.78,97.234 -122.66,145.848 -7.24,8.609 -14.93,19.199 -23.64,26.304 -0.51,-8.527 -0.51,-24.175 -1.02,-32.707 -0.17,-8.527 -0.34,-17.05 -0.51,-25.578 0.44,-9.746 0.89,-19.492 1.32,-29.238 0.88,-10.758 1.76,-21.52 2.64,-32.281 1.61,-15.438 -1.94,-49.59 15.39,-60.758 2.92,-1.879 3.01,-3.926 -0.59,-4.594 -14.9,-2.754 -31.7,-4.762 -46.58,-2.238 -5.41,0.922 -3.64,1.64 -1.9,6.402 z m -146.48,24.289 c 4.36,-2.121 8.7,-4.242 13.05,-6.367 14.77,-7.141 29.55,-14.285 44.32,-21.434 -0.16,2.606 -0.34,5.204 -0.51,7.805 13.01,83.012 26.03,166.02 39.05,249.039 -0.92,1.05 -1.84,2.09 -2.77,3.14 -0.96,0.96 -1.93,1.91 -2.9,2.86 -0.94,0.92 -1.89,1.83 -2.85,2.74 -1,0.87 -2.02,1.73 -3.03,2.59 -1.02,0.84 -2.04,1.68 -3.06,2.51 -1.06,0.78 -2.12,1.54 -3.17,2.32 -1.11,0.76 -2.2,1.52 -3.3,2.27 -2.69,1.67 -20.69,13.28 -20.1,2.74 -0.07,-2.17 -0.3,-3.76 -0.79,-5.83 -0.2,-0.7 -0.37,-1.39 -0.56,-2.1 -0.24,-0.64 -0.47,-1.27 -0.7,-1.91 -0.57,-1.49 -1.15,-2.99 -1.71,-4.47 -58.14,-47.11 -116.82,-92.344 -176.09,-137.883 -4.67,-4.332 -10.52,-7.219 -14.89,-13.098 14.49,-7.707 28.99,-15.437 43.47,-23.16 0.25,0.328 0.49,0.668 0.72,1 0.18,0.379 0.35,0.734 0.53,1.094 0.17,0.363 0.35,0.734 0.54,1.101 0.08,0.367 0.19,0.731 0.29,1.098 3.69,19.73 0.72,21.101 18.98,34.793 1.74,1.344 3.48,2.687 5.21,4.023 2.07,1.414 4.15,2.817 6.22,4.203 4.42,2.793 8.85,5.571 13.28,8.356 2.58,1.492 5.17,2.988 7.75,4.48 3.77,2.188 7.59,2.891 11.43,2.582 11.64,-0.894 54.19,-22.863 61.17,-32.043 3.2,-4.199 4.6,-9.726 3.12,-17.699 -4.06,-21.722 -17.08,-58.547 -19.07,-62.672 -0.54,-1.035 -1.08,-2.054 -1.62,-3.082 -1.14,-2.164 -0.68,-2.25 -2.92,-2.105 -4.28,0.273 -6.88,-3.668 -9.09,-6.891 z m 21.9,123.434 c -7.88,3.816 -15.78,7.633 -23.66,11.449 -2.97,1.434 -3.85,2.039 -3.55,5.738 1.33,16.168 38.86,39.742 49.62,41.662 1.25,-8.55 0.12,-41.58 -9.12,-55.478 -4.43,-6.649 -7.12,-6.356 -13.29,-3.371 z m -280.73,87.059 c 1.01,4.55 10.46,14.89 13.31,18.95 17.25,24.61 34.5,49.23 51.75,73.85 14.59,20.82 29.94,50.64 50.5,66.48 8.45,6.51 15.44,-1.84 23.21,-9.18 41.26,-38.97 62.46,-81.45 37.7,-135.1 -16.86,-36.54 -53.86,-56.57 -92.62,-56.09 -13.08,0.17 -25.49,4.18 -37.19,9.77 -16.09,7.69 -32.88,20.12 -46.66,31.32 z m 118.62,-70.555 c -2.44,-0.309 -4.87,-0.61 -7.31,-0.914 -2.37,-0.168 -4.74,-0.34 -7.11,-0.512 -2.37,-0.031 -4.73,-0.063 -7.1,-0.098 -2.3,0.067 -4.61,0.137 -6.91,0.199 -2.26,0.243 -4.53,0.477 -6.8,0.715 -2.23,0.371 -4.46,0.746 -6.7,1.118 -2.2,0.472 -4.4,0.945 -6.59,1.417 -2.17,0.645 -4.34,1.29 -6.5,1.93 -0.71,0.238 -1.42,0.473 -2.13,0.711 -0.75,0.305 -1.49,0.609 -2.24,0.914 -1.65,0.742 -3.31,1.488 -4.97,2.231 -3.39,1.726 -6.77,3.453 -10.15,5.179 -3.79,2.133 -7.58,4.262 -11.37,6.395 -45.04,28.75 -90.07,57.5 -135.1,86.25 -8.74,5.57 -14.93,12.02 -17.35,22.01 -10.94,45.29 -21.87,90.58 -32.81,135.88 27.34,2.99 61.86,-13.03 80.09,13.13 6.91,9.91 12.06,25.28 10.44,36.54 -3.16,21.97 -29.06,36.24 -48.71,40.17 -12.98,2.59 -19.36,-3.79 -23.94,-16.39 -19.8,-54.43 -39.6,-108.86 -59.4,-163.29 -0.58,-2.01 -2.19,-4.64 -1.22,-11 1.58,-6.84 4.55,-12.82 -0.69,-14.49 -10.71,-3.38 -58.16,13.68 -57.39,23.04 0.21,2.54 3.05,5.31 7.88,9.43 1.97,1.69 2.4,2.4 3.33,4.84 24.08,62.68 48.16,125.37 72.25,188.06 0.66,2.87 1.32,5.75 1.99,8.62 4.27,18.5 2.38,16.75 20.94,12.88 39.38,-8.21 106.41,-29.45 124.67,-65.97 1.03,-2.32 1.93,-4.69 2.71,-7.09 7.45,-23.25 2.56,-49.67 -16.92,-65.69 -2.31,-1.79 -4.63,-3.39 -6.97,-4.84 -16.16,-9.94 -33.47,-12.17 -52.57,-13.64 -2.76,-0.21 -12.59,0.78 -13.32,-0.48 -0.56,-0.97 10.91,-30.12 12.09,-34.15 9.19,-31.37 18.38,-62.74 27.57,-94.11 10.72,-36.69 49.27,13.27 54.22,20.03 33.23,45.46 66.58,91.02 99.82,136.88 2.24,3.09 2.52,4.32 3,8.13 1.96,15.72 7.64,7.63 17.77,2.89 9.91,-6.26 19.83,-12.52 29.74,-18.78 8.29,-5.82 16.58,-11.64 24.87,-17.46 3.79,-3.04 7.58,-6.09 11.37,-9.13 1.66,-1.49 3.32,-2.98 4.98,-4.47 1.41,-1.42 2.84,-2.84 4.26,-4.26 3.28,-3.52 6.56,-7.04 9.85,-10.56 3.11,-3.76 6.22,-7.52 9.33,-11.27 1.49,-1.96 2.98,-3.92 4.47,-5.89 1.36,-2 2.71,-3.99 4.06,-5.99 1.25,-2.06 2.51,-4.13 3.76,-6.19 1.08,-2.13 2.16,-4.27 3.25,-6.4 1.25,-2.77 2.5,-5.54 3.75,-8.32 1.08,-2.88 2.17,-5.75 3.25,-8.63 0.84,-2.94 1.69,-5.88 2.54,-8.83 0.37,-1.49 0.74,-2.98 1.12,-4.47 0.3,-1.49 0.61,-2.97 0.91,-4.46 0.5,-2.95 1.01,-5.89 1.52,-8.83 0.27,-2.99 0.54,-5.96 0.81,-8.94 0.1,-1.52 0.21,-3.05 0.31,-4.56 0,-1.49 0,-2.99 0,-4.47 -0.1,-1.49 -0.21,-2.98 -0.31,-4.47 -0.13,-1.49 -0.27,-2.98 -0.4,-4.47 -0.21,-1.45 -0.41,-2.91 -0.61,-4.36 -0.31,-1.46 -0.61,-2.91 -0.92,-4.37 -0.77,-2.87 -1.55,-5.75 -2.33,-8.63 -0.47,-1.41 -0.95,-2.84 -1.42,-4.26 -0.51,-1.42 -1.02,-2.84 -1.52,-4.26 -0.58,-1.39 -1.16,-2.78 -1.73,-4.16 -0.65,-1.39 -1.29,-2.78 -1.93,-4.17 -1.39,-2.71 -2.77,-5.41 -4.16,-8.12 -1.56,-2.6 -3.11,-5.21 -4.67,-7.81 -1.42,-2.24 -2.84,-4.47 -4.26,-6.7 -1.53,-2.17 -3.05,-4.34 -4.57,-6.5 -0.81,-1.05 -1.63,-2.1 -2.44,-3.15 -0.85,-1.01 -1.69,-2.03 -2.54,-3.04 -0.91,-0.98 -1.83,-1.97 -2.74,-2.95 -0.91,-0.91 -1.83,-1.82 -2.74,-2.74 -1.12,-0.98 -2.23,-1.96 -3.35,-2.94 -1.18,-0.947 -2.37,-1.896 -3.55,-2.845 -5.15,-3.516 -10.24,-6.551 -15.73,-9.539 -2.75,-1.324 -5.49,-2.641 -8.23,-3.961 -0.71,-0.305 -1.42,-0.609 -2.13,-0.914 -0.81,-0.301 -1.63,-0.609 -2.44,-0.91 -1.79,-0.578 -3.58,-1.153 -5.38,-1.727 -3.82,-1.051 -7.64,-2.097 -11.47,-3.148 -4.43,-0.981 -8.87,-1.961 -13.3,-2.946 -1.93,-0.64 -3.85,-1.285 -5.78,-1.925 z m -487.16,184.955 c -59.36,-3.18 -95.73,59.5 -95.73,111.66 0,52.14 34.7,94.1 87.6,92.79 53.6,-2.76 79.68,-55.41 84.06,-101.82 1.64,-47.12 -25.04,-99.94 -75.93,-102.63 z m -30.49,-29.2 c -77.61,5.21 -110.92,73.4 -105.92,142.78 4.14,57.25 46.46,99.99 98.48,116.03 22.05,6.8 44.4,6.89 66.73,0.39 43.68,-12.72 75.3,-49.27 86.43,-95.84 3.85,-16.1 4.82,-31.46 2.24,-47.81 -7.1,-45.04 -36.37,-87.23 -78.17,-105.64 -20.86,-9.19 -47.23,-11.42 -69.79,-9.91 z m -139.8,-81.43 c 0.24,4.06 0.72,11.05 0.96,15.11 0,12.46 -1.56,35.63 -6.88,51.6 -2.63,7.91 -6.89,15.4 -9.88,23.31 -22,58.17 -47.6,116.7 -72.4,174.07 -2.37,5.49 -4.96,1.61 -10.73,3.42 -6.63,2.07 -9.49,7.32 -2.88,12.3 1.17,0.87 2.6,1.71 4.24,2.71 1.38,0.85 2.75,1.74 4.12,2.61 2.54,1.49 5.08,2.98 7.62,4.47 1.22,0.67 2.44,1.35 3.65,2.03 1.12,0.57 2.23,1.15 3.35,1.72 8.91,4.11 15.49,6.91 23.01,8.07 8.1,1.25 11.47,-3.06 7.77,-10.97 -0.57,-1.23 -1.26,-2.26 -1.92,-3.2 -2.67,-3.84 -2.4,-4.7 -0.7,-8.72 21.97,-51.82 50.4,-119.83 72.04,-170.85 14.06,-33.15 22.25,-56.14 3.96,-88.51 -7.52,-11.84 -12.04,-15.87 -25.33,-19.17 z m -340.2,-280.29 h 155.44 c 0,0 49.31,205.672 313.26,258.03 0,0 201.16,44.56 345.94,-61.272 0,0 110.97,-58.063 176.32,-196.203 l 160.03,-0.274 c 0,0 -183.87,123.184 -265.87,182.227 0,0 -144.79,105.832 -271.64,113.632 -11.89,0.73 -22.98,1.18 -33.33,1.39 -170.19,3.45 -309.26,-100.143 -435.61,-187.425 C 1192.01,814.02 1138.57,766.84 1138.57,766.84"
         style="fill:black;fill-opacity:1;fill-rule:evenodd;stroke:none"
         id="path78" /><path
         d="m 719.496,769.43 c -19.098,89.488 -38.199,178.984 -57.301,268.48 0,0 -24.558,62.21 93.313,44.2 0,0 152.25,-29.47 207.906,-22.92 0,0 58.936,9.83 121.146,70.4 0,0 234.1,181.71 337.24,230.82 0,0 124.41,72.04 271.75,68.76 0,0 229.19,18.01 497.67,-198.09 0,0 106.41,-91.98 182.69,-136.73 66.57,-39.06 118.64,-31.45 199.42,-13.58 48.92,10.82 120.69,27.85 164.67,-0.3 -18,-95.493 -36.01,-190.99 -54.02,-286.486 0,0 -58.93,8.188 -152.25,-29.464 0,0 -122.78,-40.926 -302.86,65.484 -200.91,153.359 -421.06,359.906 -694.12,239.016 0,0 -127.69,-50.75 -324.14,-219.372 0,0 -63.84,-72.031 -216.09,-91.675 0,0 -83.489,-13.102 -189.899,13.093 -35.191,6.059 -50.781,7.321 -85.125,-1.636 z M 1235.9,897.48 c -4.21,2.938 -6.13,10.415 -7.31,15.125 -0.17,0.743 -0.34,1.489 -0.51,2.235 -41.13,53.191 -82.28,106.39 -123.41,159.58 -9.97,12.9 -29.88,9.78 -8.16,26.54 31.38,24.22 64.3,60.4 104.15,68.38 16.56,3.32 32.6,1.8 48.48,-9.86 9.86,-7.23 17.57,-16.96 21.2,-28.91 5.21,-17.17 3.4,-33.78 -2.06,-51.48 -0.91,-2.64 -1.83,-5.28 -2.74,-7.92 -2.47,-6.09 -4.94,-12.18 -7.41,-18.28 10.18,-3.89 20.37,-7.78 30.55,-11.67 10.39,-3.21 20.78,-6.43 31.17,-9.64 7.17,-1.59 14.35,-3.19 21.52,-4.77 8.02,-1.42 16.04,-2.85 24.06,-4.27 9.27,-1.45 18.54,-2.91 27.82,-4.36 -0.38,-0.68 -0.75,-1.36 -1.12,-2.03 -0.34,-0.65 -0.68,-1.29 -1.02,-1.93 -0.78,-1.25 -1.56,-2.51 -2.33,-3.76 -0.85,-1.15 -1.69,-2.3 -2.54,-3.45 -0.92,-1.12 -1.83,-2.23 -2.74,-3.35 -0.98,-1.08 -1.96,-2.16 -2.95,-3.25 -0.54,-0.504 -1.08,-1.012 -1.62,-1.519 -0.57,-0.508 -1.15,-1.016 -1.73,-1.524 -0.57,-0.508 -1.15,-1.015 -1.72,-1.519 -0.58,-0.442 -1.16,-0.879 -1.73,-1.321 -0.61,-0.406 -1.21,-0.812 -1.82,-1.218 -0.65,-0.407 -1.29,-0.813 -1.93,-1.219 -1.15,-0.645 -2.3,-1.285 -3.46,-1.926 -0.57,-0.309 -1.15,-0.609 -1.72,-0.918 -0.61,-0.269 -1.22,-0.539 -1.83,-0.808 -0.61,-0.239 -1.22,-0.473 -1.83,-0.711 -0.3,-0.106 -0.61,-0.207 -0.91,-0.305 -0.34,-0.102 -0.68,-0.203 -1.01,-0.305 -0.31,-0.105 -0.61,-0.203 -0.92,-0.304 -0.3,-0.071 -0.61,-0.137 -0.91,-0.204 -0.3,-0.07 -0.61,-0.136 -0.91,-0.203 -0.31,-0.035 -0.61,-0.066 -0.92,-0.101 -0.34,-0.035 -0.67,-0.067 -1.01,-0.102 -0.37,0 -0.75,0 -1.12,0 -0.81,0.035 -1.63,0.067 -2.44,0.102 -0.84,0.101 -1.69,0.203 -2.53,0.304 -0.85,0.133 -1.69,0.27 -2.54,0.403 -1.96,0.41 -3.93,0.816 -5.89,1.218 -42.1,12.56 -84.2,25.11 -126.3,37.67 -5.55,1.66 -10.39,2.2 -7.09,8.52 13.08,26.88 41.78,48.4 28.34,77.71 -13.61,29.66 -36.99,26.97 -60.03,15.69 -10.82,-5.29 -26.47,-13.09 -29.52,-26.3 -0.2,-0.95 -0.41,-1.89 -0.61,-2.84 -0.2,-1.12 -0.41,-2.23 -0.61,-3.35 41.79,-52.76 83.58,-105.506 125.37,-158.26 26.69,-13.23 -14.98,-30.488 -27.92,-39.59 -2.22,-1.769 -5.78,0 -5.78,0 z m -138.97,-81.007 51.16,21.218 -0.3,1.418 -0.41,1.219 -0.61,1.117 -0.61,1.016 -0.71,0.707 -0.91,0.609 -0.92,0.508 -1.12,0.309 -2.23,0.707 -0.91,0.508 -0.91,0.511 -0.61,0.504 -0.61,0.61 -1.32,1.218 -1.32,1.524 c -29.61,62.429 -59.22,124.859 -88.83,187.294 -0.13,0.71 -0.27,1.42 -0.4,2.13 -0.34,1.83 -0.68,3.65 -1.02,5.48 -0.13,1.12 -0.27,2.23 -0.4,3.35 -0.1,1.12 -0.21,2.23 -0.31,3.35 0,0.54 0,1.08 0,1.62 0,0.51 0,1.02 0,1.53 0,5.98 5.31,9.9 -3.04,8.93 -1.7,-0.31 -3.39,-0.61 -5.08,-0.91 -1.69,-0.34 -3.38,-0.68 -5.08,-1.02 -1.65,-0.44 -3.31,-0.88 -4.97,-1.32 -0.84,-0.31 -1.69,-0.61 -2.54,-0.91 -0.91,-0.38 -1.82,-0.75 -2.74,-1.12 -1.96,-0.88 -3.92,-1.76 -5.89,-2.63 -3.99,-2.14 -7.98,-4.27 -11.97,-6.4 l -10.129,-6.22 c -5.328,-3.26 -4.289,-6.37 0.868,-8.97 l 7.331,-3.7 81.11,-179.469 4.24,-9.558 5.4,-14.5 -0.81,-0.813 -0.61,-0.609 -0.51,-0.609 -0.71,-1.016 -0.41,-1.117 -0.3,-1.219 -0.1,-1.316 0.1,-1.321 0.3,-1.523 0.21,-0.711 0.2,-0.711 0.41,-0.813 0.49,-1.097 z M 947.293,783.625 c 4.84,-0.016 9.68,-0.027 14.52,-0.043 16.41,0 32.82,0 49.237,0 -1.29,2.27 -2.58,4.535 -3.86,6.801 -24.432,80.398 -48.866,160.797 -73.295,241.197 -1.286,0.54 -2.571,1.08 -3.856,1.62 -1.289,0.44 -2.574,0.88 -3.859,1.32 -1.254,0.41 -2.504,0.82 -3.758,1.22 -1.281,0.34 -2.57,0.68 -3.856,1.01 -1.285,0.31 -2.57,0.62 -3.855,0.92 -1.289,0.24 -2.574,0.47 -3.859,0.71 -1.321,0.21 -2.637,0.41 -3.957,0.61 -3.157,0.32 -24.415,2.94 -19.29,-6.29 0.883,-1.97 1.372,-3.51 1.829,-5.59 0.132,-0.71 0.269,-1.42 0.406,-2.13 0.066,-0.68 0.137,-1.35 0.199,-2.03 0.137,-1.59 0.274,-3.18 0.41,-4.77 -31.82,-67.723 -64.961,-133.985 -98.469,-200.793 -2.324,-5.942 -6.332,-11.086 -7.714,-18.274 16.41,-0.644 32.824,-1.285 49.23,-1.925 0.07,0.402 0.137,0.808 0.207,1.214 0,0.407 0,0.813 0,1.219 0,0.406 0,0.813 0,1.219 -0.07,0.371 -0.137,0.746 -0.207,1.117 -5.277,19.367 -8.535,19.305 1.934,39.59 0.98,1.961 1.961,3.926 2.941,5.887 1.254,2.168 2.504,4.332 3.754,6.496 2.777,4.433 5.551,8.867 8.328,13.3 1.676,2.469 3.348,4.942 5.024,7.411 2.445,3.609 5.586,5.902 9.171,7.304 10.864,4.254 58.735,3.008 69.016,-2.215 4.703,-2.39 8.383,-6.75 10.516,-14.574 5.804,-21.32 10.121,-60.136 10.121,-64.722 -0.039,-1.161 -0.078,-2.325 -0.113,-3.485 -0.083,-2.441 0.371,-2.316 -1.715,-3.156 -3.969,-1.613 -4.598,-6.301 -5.18,-10.168 z m -34.035,120.656 c -8.762,0 -17.524,0 -26.281,0 -3.305,0 -4.356,0.16 -5.7,3.625 -5.855,15.121 17.684,52.688 26.528,59.114 4.851,-7.161 18.211,-37.387 15.941,-53.926 -1.086,-7.91 -3.629,-8.813 -10.488,-8.813 z M 2422.91,808.578 c 0.6,1.652 1.21,3.301 1.81,4.949 -1.9,71.051 -3.79,142.098 -5.68,213.153 -0.15,5.52 -6.25,11.83 -7.83,18.4 17.7,0.68 35.4,1.35 53.1,2.03 2.57,-1.93 5.14,-3.86 7.71,-5.79 39.25,-48.894 78.51,-97.789 117.76,-146.683 3.15,0 5.23,0.433 6.44,1.574 5.5,5.191 2.4,40.168 1.8,49.434 -2.06,31.511 -4.11,63.025 -6.16,94.535 -0.45,0.41 -0.85,0.83 -1.22,1.25 -1.48,1.68 -11.96,13.36 -5.91,13.75 14.4,0.96 25.93,0.94 40.35,1.45 5.11,0.18 3.07,-3.97 1.66,-7.47 -0.63,-1.55 -1.48,-3.08 -2.65,-4.79 -1.94,-2.71 -1.47,-4.21 -1.39,-7.56 1.76,-70.4 3.52,-140.802 5.28,-211.201 0.36,-14.472 3.24,-14.921 -11.44,-14.921 -9.56,0 -9.96,-0.543 -16.08,6.73 -40.89,48.617 -81.78,97.234 -122.66,145.848 -7.24,8.609 -14.93,19.199 -23.64,26.304 -0.51,-8.527 -0.51,-24.175 -1.02,-32.707 -0.17,-8.527 -0.34,-17.05 -0.51,-25.578 0.44,-9.746 0.89,-19.492 1.32,-29.238 0.88,-10.758 1.76,-21.52 2.64,-32.281 1.61,-15.438 -1.94,-49.59 15.39,-60.758 2.92,-1.879 3.01,-3.926 -0.59,-4.594 -14.9,-2.754 -31.7,-4.762 -46.58,-2.238 -5.41,0.922 -3.64,1.64 -1.9,6.402 z m -146.48,24.289 c 4.36,-2.121 8.7,-4.242 13.05,-6.367 14.77,-7.141 29.55,-14.285 44.32,-21.434 -0.16,2.606 -0.34,5.204 -0.51,7.805 13.01,83.012 26.03,166.02 39.05,249.039 -0.92,1.05 -1.84,2.09 -2.77,3.14 -0.96,0.96 -1.93,1.91 -2.9,2.86 -0.94,0.92 -1.89,1.83 -2.85,2.74 -1,0.87 -2.02,1.73 -3.03,2.59 -1.02,0.84 -2.04,1.68 -3.06,2.51 -1.06,0.78 -2.12,1.54 -3.17,2.32 -1.11,0.76 -2.2,1.52 -3.3,2.27 -2.69,1.67 -20.69,13.28 -20.1,2.74 -0.07,-2.17 -0.3,-3.76 -0.79,-5.83 -0.2,-0.7 -0.37,-1.39 -0.56,-2.1 -0.24,-0.64 -0.47,-1.27 -0.7,-1.91 -0.57,-1.49 -1.15,-2.99 -1.71,-4.47 -58.14,-47.11 -116.82,-92.344 -176.09,-137.883 -4.67,-4.332 -10.52,-7.219 -14.89,-13.098 14.49,-7.707 28.99,-15.437 43.47,-23.16 0.25,0.328 0.49,0.668 0.72,1 0.18,0.379 0.35,0.734 0.53,1.094 0.17,0.363 0.35,0.734 0.54,1.101 0.08,0.367 0.19,0.731 0.29,1.098 3.69,19.73 0.72,21.101 18.98,34.793 1.74,1.344 3.48,2.687 5.21,4.023 2.07,1.414 4.15,2.817 6.22,4.203 4.42,2.793 8.85,5.571 13.28,8.356 2.58,1.492 5.17,2.988 7.75,4.48 3.77,2.188 7.59,2.891 11.43,2.582 11.64,-0.894 54.19,-22.863 61.17,-32.043 3.2,-4.199 4.6,-9.726 3.12,-17.699 -4.06,-21.722 -17.08,-58.547 -19.07,-62.672 -0.54,-1.035 -1.08,-2.054 -1.62,-3.082 -1.14,-2.164 -0.68,-2.25 -2.92,-2.105 -4.28,0.273 -6.88,-3.668 -9.09,-6.891 z m 21.9,123.434 c -7.88,3.816 -15.78,7.633 -23.66,11.449 -2.97,1.434 -3.85,2.039 -3.55,5.738 1.33,16.168 38.86,39.742 49.62,41.662 1.25,-8.55 0.12,-41.58 -9.12,-55.478 -4.43,-6.649 -7.12,-6.356 -13.29,-3.371 z m -280.73,87.059 c 1.01,4.55 10.46,14.89 13.31,18.95 17.25,24.61 34.5,49.23 51.75,73.85 14.59,20.82 29.94,50.64 50.5,66.48 8.45,6.51 15.44,-1.84 23.21,-9.18 41.26,-38.97 62.46,-81.45 37.7,-135.1 -16.86,-36.54 -53.86,-56.57 -92.62,-56.09 -13.08,0.17 -25.49,4.18 -37.19,9.77 -16.09,7.69 -32.88,20.12 -46.66,31.32 z m 118.62,-70.555 c -2.44,-0.309 -4.87,-0.61 -7.31,-0.914 -2.37,-0.168 -4.74,-0.34 -7.11,-0.512 -2.37,-0.031 -4.73,-0.063 -7.1,-0.098 -2.3,0.067 -4.61,0.137 -6.91,0.199 -2.26,0.243 -4.53,0.477 -6.8,0.715 -2.23,0.371 -4.46,0.746 -6.7,1.118 -2.2,0.472 -4.4,0.945 -6.59,1.417 -2.17,0.645 -4.34,1.29 -6.5,1.93 -0.71,0.238 -1.42,0.473 -2.13,0.711 -0.75,0.305 -1.49,0.609 -2.24,0.914 -1.65,0.742 -3.31,1.488 -4.97,2.231 -3.39,1.726 -6.77,3.453 -10.15,5.179 -3.79,2.133 -7.58,4.262 -11.37,6.395 -45.04,28.75 -90.07,57.5 -135.1,86.25 -8.74,5.57 -14.93,12.02 -17.35,22.01 -10.94,45.29 -21.87,90.58 -32.81,135.88 27.34,2.99 61.86,-13.03 80.09,13.13 6.91,9.91 12.06,25.28 10.44,36.54 -3.16,21.97 -29.06,36.24 -48.71,40.17 -12.98,2.59 -19.36,-3.79 -23.94,-16.39 -19.8,-54.43 -39.6,-108.86 -59.4,-163.29 -0.58,-2.01 -2.19,-4.64 -1.22,-11 1.58,-6.84 4.55,-12.82 -0.69,-14.49 -10.71,-3.38 -58.16,13.68 -57.39,23.04 0.21,2.54 3.05,5.31 7.88,9.43 1.97,1.69 2.4,2.4 3.33,4.84 24.08,62.68 48.16,125.37 72.25,188.06 0.66,2.87 1.32,5.75 1.99,8.62 4.27,18.5 2.38,16.75 20.94,12.88 39.38,-8.21 106.41,-29.45 124.67,-65.97 1.03,-2.32 1.93,-4.69 2.71,-7.09 7.45,-23.25 2.56,-49.67 -16.92,-65.69 -2.31,-1.79 -4.63,-3.39 -6.97,-4.84 -16.16,-9.94 -33.47,-12.17 -52.57,-13.64 -2.76,-0.21 -12.59,0.78 -13.32,-0.48 -0.56,-0.97 10.91,-30.12 12.09,-34.15 9.19,-31.37 18.38,-62.74 27.57,-94.11 10.72,-36.69 49.27,13.27 54.22,20.03 33.23,45.46 66.58,91.02 99.82,136.88 2.24,3.09 2.52,4.32 3,8.13 1.96,15.72 7.64,7.63 17.77,2.89 9.91,-6.26 19.83,-12.52 29.74,-18.78 8.29,-5.82 16.58,-11.64 24.87,-17.46 3.79,-3.04 7.58,-6.09 11.37,-9.13 1.66,-1.49 3.32,-2.98 4.98,-4.47 1.41,-1.42 2.84,-2.84 4.26,-4.26 3.28,-3.52 6.56,-7.04 9.85,-10.56 3.11,-3.76 6.22,-7.52 9.33,-11.27 1.49,-1.96 2.98,-3.92 4.47,-5.89 1.36,-2 2.71,-3.99 4.06,-5.99 1.25,-2.06 2.51,-4.13 3.76,-6.19 1.08,-2.13 2.16,-4.27 3.25,-6.4 1.25,-2.77 2.5,-5.54 3.75,-8.32 1.08,-2.88 2.17,-5.75 3.25,-8.63 0.84,-2.94 1.69,-5.88 2.54,-8.83 0.37,-1.49 0.74,-2.98 1.12,-4.47 0.3,-1.49 0.61,-2.97 0.91,-4.46 0.5,-2.95 1.01,-5.89 1.52,-8.83 0.27,-2.99 0.54,-5.96 0.81,-8.94 0.1,-1.52 0.21,-3.05 0.31,-4.56 0,-1.49 0,-2.99 0,-4.47 -0.1,-1.49 -0.21,-2.98 -0.31,-4.47 -0.13,-1.49 -0.27,-2.98 -0.4,-4.47 -0.21,-1.45 -0.41,-2.91 -0.61,-4.36 -0.31,-1.46 -0.61,-2.91 -0.92,-4.37 -0.77,-2.87 -1.55,-5.75 -2.33,-8.63 -0.47,-1.41 -0.95,-2.84 -1.42,-4.26 -0.51,-1.42 -1.02,-2.84 -1.52,-4.26 -0.58,-1.39 -1.16,-2.78 -1.73,-4.16 -0.65,-1.39 -1.29,-2.78 -1.93,-4.17 -1.39,-2.71 -2.77,-5.41 -4.16,-8.12 -1.56,-2.6 -3.11,-5.21 -4.67,-7.81 -1.42,-2.24 -2.84,-4.47 -4.26,-6.7 -1.53,-2.17 -3.05,-4.34 -4.57,-6.5 -0.81,-1.05 -1.63,-2.1 -2.44,-3.15 -0.85,-1.01 -1.69,-2.03 -2.54,-3.04 -0.91,-0.98 -1.83,-1.97 -2.74,-2.95 -0.91,-0.91 -1.83,-1.82 -2.74,-2.74 -1.12,-0.98 -2.23,-1.96 -3.35,-2.94 -1.18,-0.947 -2.37,-1.896 -3.55,-2.845 -5.15,-3.516 -10.24,-6.551 -15.73,-9.539 -2.75,-1.324 -5.49,-2.641 -8.23,-3.961 -0.71,-0.305 -1.42,-0.609 -2.13,-0.914 -0.81,-0.301 -1.63,-0.609 -2.44,-0.91 -1.79,-0.578 -3.58,-1.153 -5.38,-1.727 -3.82,-1.051 -7.64,-2.097 -11.47,-3.148 -4.43,-0.981 -8.87,-1.961 -13.3,-2.946 -1.93,-0.64 -3.85,-1.285 -5.78,-1.925 z m -487.16,184.955 c -59.36,-3.18 -95.73,59.5 -95.73,111.66 0,52.14 34.7,94.1 87.6,92.79 53.6,-2.76 79.68,-55.41 84.06,-101.82 1.64,-47.12 -25.04,-99.94 -75.93,-102.63 z m -30.49,-29.2 c -77.61,5.21 -110.92,73.4 -105.92,142.78 4.14,57.25 46.46,99.99 98.48,116.03 22.05,6.8 44.4,6.89 66.73,0.39 43.68,-12.72 75.3,-49.27 86.43,-95.84 3.85,-16.1 4.82,-31.46 2.24,-47.81 -7.1,-45.04 -36.37,-87.23 -78.17,-105.64 -20.86,-9.19 -47.23,-11.42 -69.79,-9.91 z m -139.8,-81.43 c 0.24,4.06 0.72,11.05 0.96,15.11 0,12.46 -1.56,35.63 -6.88,51.6 -2.63,7.91 -6.89,15.4 -9.88,23.31 -22,58.17 -47.6,116.7 -72.4,174.07 -2.37,5.49 -4.96,1.61 -10.73,3.42 -6.63,2.07 -9.49,7.32 -2.88,12.3 1.17,0.87 2.6,1.71 4.24,2.71 1.38,0.85 2.75,1.74 4.12,2.61 2.54,1.49 5.08,2.98 7.62,4.47 1.22,0.67 2.44,1.35 3.65,2.03 1.12,0.57 2.23,1.15 3.35,1.72 8.91,4.11 15.49,6.91 23.01,8.07 8.1,1.25 11.47,-3.06 7.77,-10.97 -0.57,-1.23 -1.26,-2.26 -1.92,-3.2 -2.67,-3.84 -2.4,-4.7 -0.7,-8.72 21.97,-51.82 50.4,-119.83 72.04,-170.85 14.06,-33.15 22.25,-56.14 3.96,-88.51 -7.52,-11.84 -12.04,-15.87 -25.33,-19.17 z m -340.2,-280.29 h 155.44 c 0,0 49.31,205.672 313.26,258.03 0,0 201.16,44.56 345.94,-61.272 0,0 110.97,-58.063 176.32,-196.203 l 160.03,-0.274 c 0,0 -183.87,123.184 -265.87,182.227 0,0 -144.79,105.832 -271.64,113.632 -11.89,0.73 -22.98,1.18 -33.33,1.39 -170.19,3.45 -309.26,-100.143 -435.61,-187.425 C 1192.01,814.02 1138.57,766.84 1138.57,766.84 Z"
         style="fill:none;stroke:black;stroke-width:2.16;stroke-linecap:butt;stroke-linejoin:miter;stroke-miterlimit:2.61313;stroke-dasharray:none;stroke-opacity:1"
         id="path80" /></g></g></svg>
