<svg width="1837" height="1837" viewBox="0 0 1837 1837" fill="none" xmlns="http://www.w3.org/2000/svg">
<rect width="1837" height="1837" rx="200" fill="#DB3535"/>
<g clip-path="url(#clip0_36_2)" filter="url(#filter0_d_36_2)">
<path d="M988.481 265.922C987.857 262.569 987.432 259.182 987.206 255.778C983.887 208.006 1019.85 166.581 1067.63 163.216C1115.45 159.884 1156.87 195.893 1160.21 243.665C1163.55 291.437 1127.57 332.862 1079.79 336.227C1076.77 336.457 1073.78 336.497 1070.85 336.383C1068.91 336.882 1067.75 337.118 1066.09 338.588C1061.17 346.25 1078.59 344.82 1066.75 378.307C1066.75 378.307 1066.67 381.983 1065.35 385.658C1064.42 398.513 1059.48 436.607 1058.77 456.894C1061.28 459.835 1061.99 461.265 1061.72 468.394C1060.6 478.032 1058.38 501.651 1054.83 516.786C1051.81 529.756 1046.52 532.231 1042.25 535.408C1036.25 562.278 1034.66 584.535 1019.26 617.172C1017.86 641.911 1016.12 648.649 1010.94 660.729C1010.36 697.156 1012.87 702.579 988.292 760.258C981.944 787.236 987.982 805.899 994.68 833.929C1001.53 862.735 1020.54 874.774 1023.37 904.275C1030.03 973.751 1028.36 1021.05 1013.45 1075.53L1026.46 1106.34C1042.61 1113.74 1082.68 1133.99 1060.46 1166.04C1091.75 1182.48 1139.02 1199.94 1178.01 1233.29C1193.69 1246.35 1210.26 1260.58 1225.13 1277.3C1253.43 1281.71 1250.41 1283.95 1271.39 1296.84C1333.07 1334.66 1432 1409.68 1489.34 1462.79C1499.21 1468.56 1503.24 1472.71 1511.21 1476.89C1512.46 1479.28 1512.8 1479.84 1512.52 1480.48C1509.78 1487.42 1509.89 1487.62 1507.41 1493.14C1510.51 1496.56 1516.27 1499.76 1519.72 1502.75C1522.94 1503.76 1522.94 1502.21 1528.48 1500.86C1535.67 1507.6 1544.59 1513.03 1547.79 1512.71C1557.55 1510.23 1555.88 1512.25 1564.13 1503.02C1567.1 1499.97 1572.07 1503.06 1572.07 1503.06C1575.17 1499.43 1581.83 1492.18 1590.7 1486.95C1597.79 1482.78 1611.3 1482.31 1611.3 1482.31C1615.83 1482.35 1614.98 1486.99 1614.59 1488.5C1609.48 1491.14 1598.64 1494.04 1592.56 1498.52C1579.31 1512.22 1568.94 1530.7 1568.94 1530.7C1595.61 1527.06 1611.99 1533.68 1634.22 1531.13C1646.34 1530.43 1655.28 1531.21 1668.01 1522C1668.01 1522 1680.25 1513.29 1691.21 1508.67C1701.85 1504.03 1711.96 1506.5 1721.33 1513.31C1727.95 1520.78 1731.93 1520.82 1721.87 1531.36C1718.23 1535.45 1712.96 1540.02 1706.27 1546.65C1694.5 1558.27 1678.66 1573.77 1662.25 1586.6C1645.64 1599.57 1626.78 1611.22 1615.01 1616.56C1585.32 1637.89 1592.33 1632.32 1568.98 1653.46C1566.03 1656.1 1558.22 1660.81 1554.43 1663.33C1545.22 1669.37 1542.34 1664.33 1536.34 1653.27C1536.34 1653.27 1533.6 1649.13 1529.06 1640.3C1524.11 1630.66 1520.39 1619.64 1521.9 1619.82C1516.37 1619.12 1491.46 1589.93 1491.4 1583.67C1486.13 1582.46 1463.67 1560.72 1462.87 1556.56L1442.97 1540.61C1420.2 1545.34 1414.98 1531.2 1354.85 1488.54C1347.99 1488.42 1337.4 1484.72 1322.21 1473.46C1295.08 1451.72 1229.98 1402.56 1218.95 1396.94C1207.09 1390.91 1192.94 1385.22 1184.25 1378.05C1171.24 1375.66 1164.12 1374.3 1157.61 1372.48C1150.96 1370.66 1144.91 1368.31 1128.07 1366.05C1100.66 1362.65 1072.24 1351.3 1045.18 1337.76C1032.37 1331.69 1021.21 1328.6 1010.18 1323.85C985.439 1313.41 964.224 1304 947.785 1300.2C941.512 1299.58 911.697 1290.64 896.061 1281.51C890.638 1278.72 887.501 1276.05 883.94 1275.23C875.73 1273.34 870.462 1276.59 866.752 1277.84C846.698 1288.28 827.918 1297.31 810.569 1306.64C794.42 1315.27 779.553 1324.25 763.796 1333.32C749.583 1341.52 733.165 1349.26 716.288 1357.32C716.288 1357.32 668.159 1381.44 641.872 1390.81C619.065 1409.43 572.447 1441.63 543.995 1457.59C529.903 1464.28 502.53 1481.62 489.903 1485.5C482.699 1491.3 457.032 1509.61 436.937 1524.71C421.409 1536.33 409.679 1546.12 409.679 1546.12C400.66 1554.21 401.274 1558.05 384.127 1550.76C379.365 1554.67 375.688 1557.11 372.626 1559.35C360.241 1568.34 359.189 1566.17 354.663 1565.94C346.029 1573.41 344.943 1569.55 337.394 1578.14C332.437 1585.82 337.509 1583.99 327.054 1587.71C324.848 1588.56 323.802 1591.22 322.102 1592.7C313.698 1599.62 313.664 1619.18 293.529 1620.57C281.872 1628.89 284.854 1638.93 275.95 1638.49C276.496 1647.12 260.193 1659.71 257.251 1659.67C231.578 1668.53 229.797 1649.66 198.977 1663.74C194.991 1665.57 189.142 1670.61 181.439 1672.06C167.887 1674.62 151.509 1671.94 141.519 1664.2C125.796 1652.09 111.32 1628.7 111.32 1628.7C106.322 1616.89 109.229 1609.43 124.831 1598.26C131.334 1594.13 132.534 1591.03 143.455 1590.28C148.879 1588.23 147.401 1591.37 157.088 1587.9C162.7 1585.88 162.7 1587.32 174.006 1586.35C176.596 1584.61 180.238 1583.99 185.115 1582.4C194.06 1579.45 202.775 1576.17 202.775 1576.17C202.775 1576.17 205.055 1573.88 213.656 1574.7C220.934 1571.72 228.408 1567.29 232.239 1565.94C231.268 1554.41 232.509 1554.95 237.852 1550.31C244.509 1544.57 245.71 1545.51 250.668 1549.06C252.759 1547.85 253.764 1547.44 253.535 1545.69C252.719 1539.69 247.572 1536.86 249.123 1523.63C246.836 1518.33 243.47 1511.78 244.206 1507.83C245.292 1503.57 246.337 1501.51 248.928 1500.16C251.68 1498.69 252.57 1500.67 254.041 1502.32C256.671 1505.38 258.803 1514.45 258.803 1514.45C259.734 1524.67 262.904 1537.91 273.009 1530.44C278.972 1524.4 280.132 1508.3 292.287 1511.74L300.962 1519.28C308.321 1512.36 308.672 1512.36 313.084 1509.58C313.084 1509.58 306.19 1502.61 312.234 1497.19C316.376 1493.51 321.367 1490.87 330.237 1481.04C354.589 1454.14 367.095 1442.25 393.429 1420.56C445.97 1377.36 505.748 1347.06 543.732 1331.99C556.116 1316.27 568.164 1305.82 595.652 1303.18C628.327 1248.01 690.898 1198.74 705.265 1190.89C716.955 1169.7 722.028 1171.95 737.32 1167.7C749.435 1157.99 752.187 1157.99 757.61 1147.84C762.879 1126.91 745.455 1070.96 789.935 1068.13C799.385 1054.79 797.024 1057.99 807.554 1045.37C800.431 1027.79 797.49 1013.09 795.554 1000.43C795.203 998.955 777.901 986.761 782.811 970.844C775.459 962.096 761.712 941.68 757.415 932.116C755.445 932.157 753.813 931.415 751.647 931.118C749.401 930.761 746.608 930.889 743.479 930.619C736.551 948.492 729.003 949.821 716.686 953.766C694.695 1000.63 686.952 1020.46 624.731 1059.2C600.029 1086.86 592.13 1117.67 592.245 1117.21C587.989 1126.34 589.493 1139.12 591.739 1145.97C588.488 1156.12 589.338 1157.12 589.338 1157.12C590.694 1160.95 594.222 1166.02 598.552 1167.1C606.026 1169.08 613.5 1168.76 613.068 1177.09C612.063 1187.5 598.397 1185.79 591.928 1184.63C567.031 1180.68 574.896 1164.46 558.976 1169.88C546.781 1177.85 542.214 1201.39 522.308 1198.34C519.677 1196.6 520.487 1191.45 522.268 1187.74C525.06 1181.93 530.011 1177.13 527.07 1174.95C514.09 1179.1 501.132 1183.32 488.196 1187.61C476 1190.94 462.638 1184.86 474.645 1176.84C480.223 1174.68 488.196 1171.96 498.031 1165.66C498.031 1165.66 503.097 1158.77 493.383 1162.21C482.773 1166 467.13 1168.36 455.906 1167.13C455.906 1167.13 432.634 1164.08 429.652 1162.25C426.63 1160.42 423.885 1153.23 431.163 1153.27C440.378 1153.35 463.454 1150.63 481.343 1145.87C489.977 1142.51 506.396 1132.79 515.61 1128.22C515.61 1128.22 525.6 1113.67 531.097 1110.8C540.271 1100.24 548.015 1094 556.143 1083.19C564.083 1066.81 572.292 1040.89 598.579 1000.74C610.734 982.228 625.838 960.673 644.846 941.397C644.846 941.397 649.764 910.547 674.506 888.594C679.97 875.739 688.253 860.604 696.422 846.589C699.599 841.206 702.615 836.526 705.636 831.413C713.306 819.374 721.36 796.962 751.249 793.435C751.249 793.435 764.025 783.992 768.943 777.281C776.612 770.739 774.865 760.562 781.098 753.392C771.573 744.105 747.222 726.643 744.855 702.37C742.339 676.626 751.512 655.448 767.081 639.773C784.349 622.507 802.549 613.874 824.654 615.189C852.256 619.29 857.484 628.429 866.273 637.487C874.712 646.079 877.848 640.549 881.41 650.612C904.567 656.77 903.286 654.058 903.09 671.095C906.652 675.89 912.615 680.349 912.534 690.297C920.318 674.15 921.863 671.176 942.659 653.404C947.576 638.964 950.915 624.76 955.232 610.32C959.286 596.966 964.325 583.22 968.231 572.881C964.089 543.69 972.595 538.854 983.948 513.265C981.938 509.745 982.369 508.74 983.219 502.967C987.631 486.051 994.525 463.673 998.626 449.077C998.626 449.077 999.982 443.27 1005.99 442.845C1011.18 424.379 1018.96 390.002 1020.27 382.994C1025.61 363.678 1022.17 357.48 1018.07 346.601C1016.75 343.039 1017.36 337.967 1015.09 334.015C1008.62 322.752 1001.66 308.116 996.94 297.662C993.877 291.005 989.034 265.915 989.034 265.915C984.879 253.107 988.481 265.922 988.481 265.922" fill="white"/>
</g>
<defs>
<filter id="filter0_d_36_2" x="109" y="163" width="1649" height="1540" filterUnits="userSpaceOnUse" color-interpolation-filters="sRGB">
<feFlood flood-opacity="0" result="BackgroundImageFix"/>
<feColorMatrix in="SourceAlpha" type="matrix" values="0 0 0 0 0 0 0 0 0 0 0 0 0 0 0 0 0 0 127 0" result="hardAlpha"/>
<feOffset dx="30" dy="30"/>
<feColorMatrix type="matrix" values="0 0 0 0 0 0 0 0 0 0 0 0 0 0 0 0 0 0 1 0"/>
<feBlend mode="normal" in2="BackgroundImageFix" result="effect1_dropShadow_36_2"/>
<feBlend mode="normal" in="SourceGraphic" in2="effect1_dropShadow_36_2" result="shape"/>
</filter>
<clipPath id="clip0_36_2">
<rect width="1619" height="1510" fill="white" transform="translate(109 163)"/>
</clipPath>
</defs>
</svg>
